<?xml version="1.0" encoding="UTF-8" standalone="no"?>
<!DOCTYPE svg PUBLIC "-//W3C//DTD SVG 1.1//EN"
 "http://www.w3.org/Graphics/SVG/1.1/DTD/svg11.dtd">
<!-- Generated by graphviz version 2.48.0 (0)
 -->
<!-- Title: snakemake_dag Pages: 1 -->
<svg width="319pt" height="260pt"
 viewBox="0.00 0.00 318.99 260.00" xmlns="http://www.w3.org/2000/svg" xmlns:xlink="http://www.w3.org/1999/xlink">
<g id="graph0" class="graph" transform="scale(1 1) rotate(0) translate(4 256)">
<title>snakemake_dag</title>
<polygon fill="white" stroke="transparent" points="-4,4 -4,-256 314.99,-256 314.99,4 -4,4"/>
<!-- 0 -->
<g id="node1" class="node">
<title>0</title>
<path fill="none" stroke="#56b1d8" stroke-width="2" d="M154.99,-36C154.99,-36 89.99,-36 89.99,-36 83.99,-36 77.99,-30 77.99,-24 77.99,-24 77.99,-12 77.99,-12 77.99,-6 83.99,0 89.99,0 89.99,0 154.99,0 154.99,0 160.99,0 166.99,-6 166.99,-12 166.99,-12 166.99,-24 166.99,-24 166.99,-30 160.99,-36 154.99,-36"/>
<text text-anchor="middle" x="122.49" y="-15.5" font-family="sans" font-size="10.00">get_viral_contigs</text>
</g>
<!-- 1 -->
<g id="node2" class="node">
<title>1</title>
<path fill="none" stroke="#56d89a" stroke-width="2" d="M108.99,-108C108.99,-108 27.99,-108 27.99,-108 21.99,-108 15.99,-102 15.99,-96 15.99,-96 15.99,-84 15.99,-84 15.99,-78 21.99,-72 27.99,-72 27.99,-72 108.99,-72 108.99,-72 114.99,-72 120.99,-78 120.99,-84 120.99,-84 120.99,-96 120.99,-96 120.99,-102 114.99,-108 108.99,-108"/>
<text text-anchor="middle" x="68.49" y="-87.5" font-family="sans" font-size="10.00">interproscan_search</text>
</g>
<!-- 1&#45;&gt;0 -->
<g id="edge1" class="edge">
<title>1&#45;&gt;0</title>
<path fill="none" stroke="grey" stroke-width="2" d="M81.84,-71.7C88.24,-63.39 96.04,-53.28 103.09,-44.14"/>
<polygon fill="grey" stroke="grey" stroke-width="2" points="105.96,-46.16 109.29,-36.1 100.41,-41.88 105.96,-46.16"/>
</g>
<!-- 2 -->
<g id="node3" class="node">
<title>2</title>
<path fill="none" stroke="#70d856" stroke-width="2" stroke-dasharray="5,2" d="M150.49,-180C150.49,-180 94.49,-180 94.49,-180 88.49,-180 82.49,-174 82.49,-168 82.49,-168 82.49,-156 82.49,-156 82.49,-150 88.49,-144 94.49,-144 94.49,-144 150.49,-144 150.49,-144 156.49,-144 162.49,-150 162.49,-156 162.49,-156 162.49,-168 162.49,-168 162.49,-174 156.49,-180 150.49,-180"/>
<text text-anchor="middle" x="122.49" y="-159.5" font-family="sans" font-size="10.00">flye_assemble</text>
</g>
<!-- 2&#45;&gt;0 -->
<g id="edge4" class="edge">
<title>2&#45;&gt;0</title>
<path fill="none" stroke="grey" stroke-width="2" d="M82.37,-154.13C55.89,-147.29 23.12,-133.89 6.49,-108 -2.16,-94.54 -2.16,-85.46 6.49,-72 20.21,-50.65 44.9,-37.79 67.98,-30.1"/>
<polygon fill="grey" stroke="grey" stroke-width="2" points="69.2,-33.39 77.74,-27.11 67.15,-26.7 69.2,-33.39"/>
</g>
<!-- 2&#45;&gt;1 -->
<g id="edge5" class="edge">
<title>2&#45;&gt;1</title>
<path fill="none" stroke="grey" stroke-width="2" d="M109.14,-143.7C102.73,-135.39 94.93,-125.28 87.88,-116.14"/>
<polygon fill="grey" stroke="grey" stroke-width="2" points="90.56,-113.88 81.68,-108.1 85.02,-118.16 90.56,-113.88"/>
</g>
<!-- 4 -->
<g id="node5" class="node">
<title>4</title>
<path fill="none" stroke="#56d8c9" stroke-width="2" d="M203.99,-108C203.99,-108 150.99,-108 150.99,-108 144.99,-108 138.99,-102 138.99,-96 138.99,-96 138.99,-84 138.99,-84 138.99,-78 144.99,-72 150.99,-72 150.99,-72 203.99,-72 203.99,-72 209.99,-72 215.99,-78 215.99,-84 215.99,-84 215.99,-96 215.99,-96 215.99,-102 209.99,-108 203.99,-108"/>
<text text-anchor="middle" x="177.49" y="-87.5" font-family="sans" font-size="10.00">blastx_search</text>
</g>
<!-- 2&#45;&gt;4 -->
<g id="edge7" class="edge">
<title>2&#45;&gt;4</title>
<path fill="none" stroke="grey" stroke-width="2" d="M136.08,-143.7C142.61,-135.39 150.55,-125.28 157.73,-116.14"/>
<polygon fill="grey" stroke="grey" stroke-width="2" points="160.62,-118.13 164.05,-108.1 155.12,-113.81 160.62,-118.13"/>
</g>
<!-- 5 -->
<g id="node6" class="node">
<title>5</title>
<path fill="none" stroke="#5682d8" stroke-width="2" stroke-dasharray="5,2" d="M298.99,-108C298.99,-108 245.99,-108 245.99,-108 239.99,-108 233.99,-102 233.99,-96 233.99,-96 233.99,-84 233.99,-84 233.99,-78 239.99,-72 245.99,-72 245.99,-72 298.99,-72 298.99,-72 304.99,-72 310.99,-78 310.99,-84 310.99,-84 310.99,-96 310.99,-96 310.99,-102 304.99,-108 298.99,-108"/>
<text text-anchor="middle" x="272.49" y="-87.5" font-family="sans" font-size="10.00">blastn_search</text>
</g>
<!-- 2&#45;&gt;5 -->
<g id="edge8" class="edge">
<title>2&#45;&gt;5</title>
<path fill="none" stroke="grey" stroke-width="2" d="M159.18,-143.88C179.5,-134.39 204.96,-122.51 226.59,-112.42"/>
<polygon fill="grey" stroke="grey" stroke-width="2" points="228.33,-115.47 235.91,-108.07 225.37,-109.13 228.33,-115.47"/>
</g>
<!-- 3 -->
<g id="node4" class="node">
<title>3</title>
<path fill="none" stroke="#d8b456" stroke-width="2" stroke-dasharray="5,2" d="M163.99,-252C163.99,-252 80.99,-252 80.99,-252 74.99,-252 68.99,-246 68.99,-240 68.99,-240 68.99,-228 68.99,-228 68.99,-222 74.99,-216 80.99,-216 80.99,-216 163.99,-216 163.99,-216 169.99,-216 175.99,-222 175.99,-228 175.99,-228 175.99,-240 175.99,-240 175.99,-246 169.99,-252 163.99,-252"/>
<text text-anchor="middle" x="122.49" y="-237" font-family="sans" font-size="10.00">read_qc</text>
<text text-anchor="middle" x="122.49" y="-226" font-family="sans" font-size="10.00">iden: BRIN&#45;ACDP_01</text>
</g>
<!-- 3&#45;&gt;2 -->
<g id="edge6" class="edge">
<title>3&#45;&gt;2</title>
<path fill="none" stroke="grey" stroke-width="2" d="M122.49,-215.7C122.49,-207.98 122.49,-198.71 122.49,-190.11"/>
<polygon fill="grey" stroke="grey" stroke-width="2" points="125.99,-190.1 122.49,-180.1 118.99,-190.1 125.99,-190.1"/>
</g>
<!-- 4&#45;&gt;0 -->
<g id="edge2" class="edge">
<title>4&#45;&gt;0</title>
<path fill="none" stroke="grey" stroke-width="2" d="M163.89,-71.7C157.36,-63.39 149.42,-53.28 142.24,-44.14"/>
<polygon fill="grey" stroke="grey" stroke-width="2" points="144.86,-41.81 135.93,-36.1 139.35,-46.13 144.86,-41.81"/>
</g>
<!-- 5&#45;&gt;0 -->
<g id="edge3" class="edge">
<title>5&#45;&gt;0</title>
<path fill="none" stroke="grey" stroke-width="2" d="M235.79,-71.88C215.47,-62.39 190.02,-50.51 168.38,-40.42"/>
<polygon fill="grey" stroke="grey" stroke-width="2" points="169.6,-37.13 159.06,-36.07 166.64,-43.47 169.6,-37.13"/>
</g>
</g>
</svg>
