<?xml version="1.0" encoding="UTF-8" standalone="no"?>
<!DOCTYPE svg PUBLIC "-//W3C//DTD SVG 1.1//EN"
 "http://www.w3.org/Graphics/SVG/1.1/DTD/svg11.dtd">
<!-- Generated by graphviz version 2.43.0 (0)
 -->
<!-- Title: snakemake_dag Pages: 1 -->
<svg width="97pt" height="116pt"
 viewBox="0.00 0.00 97.00 116.00" xmlns="http://www.w3.org/2000/svg" xmlns:xlink="http://www.w3.org/1999/xlink">
<g id="graph0" class="graph" transform="scale(1 1) rotate(0) translate(4 112)">
<title>snakemake_dag</title>
<polygon fill="white" stroke="transparent" points="-4,4 -4,-112 93,-112 93,4 -4,4"/>
<!-- 0 -->
<g id="node1" class="node">
<title>0</title>
<path fill="none" stroke="#569ad8" stroke-width="2" d="M77,-36C77,-36 12,-36 12,-36 6,-36 0,-30 0,-24 0,-24 0,-12 0,-12 0,-6 6,0 12,0 12,0 77,0 77,0 83,0 89,-6 89,-12 89,-12 89,-24 89,-24 89,-30 83,-36 77,-36"/>
<text text-anchor="middle" x="44.5" y="-15.5" font-family="sans" font-size="10.00">diamond_blast</text>
</g>
<!-- 1 -->
<g id="node2" class="node">
<title>1</title>
<path fill="none" stroke="#56d8d8" stroke-width="2" d="M60,-108C60,-108 29,-108 29,-108 23,-108 17,-102 17,-96 17,-96 17,-84 17,-84 17,-78 23,-72 29,-72 29,-72 60,-72 60,-72 66,-72 72,-78 72,-84 72,-84 72,-96 72,-96 72,-102 66,-108 60,-108"/>
<text text-anchor="middle" x="44.5" y="-87.5" font-family="sans" font-size="10.00">read_qc</text>
</g>
<!-- 1&#45;&gt;0 -->
<g id="edge1" class="edge">
<title>1&#45;&gt;0</title>
<path fill="none" stroke="grey" stroke-width="2" d="M44.5,-71.7C44.5,-63.98 44.5,-54.71 44.5,-46.11"/>
<polygon fill="grey" stroke="grey" stroke-width="2" points="48,-46.1 44.5,-36.1 41,-46.1 48,-46.1"/>
</g>
</g>
</svg>
